# xmcd
#
# Track frame offsets: 
#        150
#        7945
#        27145
#        42747
#        56712
#        84217
#        101370
#        122682
#        143432
#        163467
#        180690
#        199420
#        209012
#        228395
#        247335
#        271990
#
# Disc length: 4016 seconds
#
# Revision: 40
# Processed by: cddbd v1.5.2PL0 Copyright (c) Steve Scherf et al.
# Submitted via: ExactAudioCopy v1.0b3
#
DISCID=e40fae10
DTITLE=Alicia Keys - The Diary Of Alicia Keys
DYEAR=2003
DGENRE=R&B
TTITLE0=Harlem's Nocturne
TTITLE1=Karma
TTITLE2=Heartburn
TTITLE3=Walk On By
TTITLE4=You Don't Know My Name
TTITLE5=If I Ain't Got You
TTITLE6=Diary (Feat. Tony! Toni! Tone!)
TTITLE7=Dragon Days
TTITLE8=Wake Up
TTITLE9=So Simple
TTITLE10=When You Really Love Someone
TTITLE11=Feeling U, Feeling Me (Interlude)
TTITLE12=Slow Down
TTITLE13=Samsonite Man
TTITLE14=Nobody Not Really
TTITLE15=Data
EXTD=YEAR: 2003
EXTT0=
EXTT1=
EXTT2=
EXTT3=
EXTT4=
EXTT5=
EXTT6=
EXTT7=
EXTT8=
EXTT9=
EXTT10=
EXTT11=
EXTT12=
EXTT13=
EXTT14=
EXTT15=
PLAYORDER=
